<svg xmlns="http://www.w3.org/2000/svg" xmlns:xlink="http://www.w3.org/1999/xlink" width="500" zoomAndPan="magnify" viewBox="0 0 375 374.999991" height="500" preserveAspectRatio="xMidYMid meet" version="1.0"><defs><filter x="0%" y="0%" width="100%" height="100%" id="1252cd089f"><feColorMatrix values="0 0 0 0 1 0 0 0 0 1 0 0 0 0 1 0 0 0 1 0" color-interpolation-filters="sRGB"/></filter><g/><clipPath id="600957ed15"><path d="M 28 246 L 186 246 L 186 258.265625 L 28 258.265625 Z M 28 246 " clip-rule="nonzero"/></clipPath><clipPath id="5f8c60acba"><path d="M 26.582031 197 L 74 197 L 74 216 L 26.582031 216 Z M 26.582031 197 " clip-rule="nonzero"/></clipPath><mask id="122a39f884"><g filter="url(#1252cd089f)"><rect x="-37.5" width="450" fill="#000000" y="-37.499999" height="449.999989" fill-opacity="0.2"/></g></mask><clipPath id="be19aa81cf"><path d="M 0.320312 0.640625 L 5 0.640625 L 5 35 L 0.320312 35 Z M 0.320312 0.640625 " clip-rule="nonzero"/></clipPath><clipPath id="a52284f8f4"><path d="M 0.320312 31 L 95.601562 31 L 95.601562 56.800781 L 0.320312 56.800781 Z M 0.320312 31 " clip-rule="nonzero"/></clipPath><clipPath id="6f149fcfda"><rect x="0" width="96" y="0" height="57"/></clipPath><clipPath id="ec4eba8b6e"><path d="M 41 127.015625 L 138 127.015625 L 138 200 L 41 200 Z M 41 127.015625 " clip-rule="nonzero"/></clipPath><clipPath id="df28fc1acd"><path d="M 135 127.015625 L 165 127.015625 L 165 200 L 135 200 Z M 135 127.015625 " clip-rule="nonzero"/></clipPath></defs><rect x="-37.5" width="450" fill="#ffffff" y="-37.499999" height="449.999989" fill-opacity="1"/><rect x="-37.5" width="450" fill="#ffb025" y="-37.499999" height="449.999989" fill-opacity="1"/><g clip-path="url(#600957ed15)"><path fill="#4f124c" d="M 185.722656 252.574219 C 185.722656 252.761719 185.597656 252.945312 185.347656 253.128906 C 185.09375 253.316406 184.71875 253.5 184.21875 253.679688 C 183.71875 253.863281 183.09375 254.042969 182.347656 254.21875 C 181.605469 254.398438 180.742188 254.574219 179.757812 254.746094 C 178.777344 254.914062 177.679688 255.082031 176.46875 255.246094 C 175.261719 255.410156 173.941406 255.570312 172.515625 255.726562 C 171.089844 255.878906 169.5625 256.027344 167.933594 256.171875 C 166.304688 256.316406 164.585938 256.453125 162.769531 256.585938 C 160.953125 256.714844 159.054688 256.839844 157.070312 256.957031 C 155.085938 257.074219 153.027344 257.1875 150.894531 257.289062 C 148.757812 257.390625 146.558594 257.488281 144.296875 257.574219 C 142.03125 257.664062 139.714844 257.742188 137.34375 257.8125 C 134.972656 257.882812 132.558594 257.945312 130.101562 258 C 127.644531 258.054688 125.160156 258.101562 122.640625 258.136719 C 120.125 258.171875 117.589844 258.199219 115.035156 258.21875 C 112.480469 258.234375 109.917969 258.246094 107.351562 258.246094 C 104.785156 258.246094 102.226562 258.234375 99.671875 258.21875 C 97.117188 258.199219 94.582031 258.171875 92.0625 258.136719 C 89.546875 258.101562 87.058594 258.054688 84.601562 258 C 82.148438 257.945312 79.734375 257.882812 77.363281 257.8125 C 74.988281 257.742188 72.671875 257.664062 70.410156 257.574219 C 68.144531 257.488281 65.945312 257.390625 63.8125 257.289062 C 61.679688 257.1875 59.617188 257.074219 57.632812 256.957031 C 55.652344 256.839844 53.75 256.714844 51.9375 256.585938 C 50.121094 256.453125 48.398438 256.316406 46.769531 256.171875 C 45.144531 256.027344 43.617188 255.878906 42.191406 255.726562 C 40.761719 255.570312 39.445312 255.410156 38.234375 255.246094 C 37.027344 255.082031 35.929688 254.914062 34.945312 254.746094 C 33.964844 254.574219 33.101562 254.398438 32.355469 254.21875 C 31.609375 254.042969 30.988281 253.863281 30.488281 253.679688 C 29.988281 253.5 29.609375 253.316406 29.359375 253.128906 C 29.105469 252.945312 28.980469 252.761719 28.980469 252.574219 C 28.980469 252.386719 29.105469 252.203125 29.359375 252.019531 C 29.609375 251.832031 29.988281 251.648438 30.488281 251.46875 C 30.988281 251.285156 31.609375 251.105469 32.355469 250.929688 C 33.101562 250.75 33.964844 250.574219 34.945312 250.402344 C 35.929688 250.234375 37.027344 250.066406 38.234375 249.902344 C 39.445312 249.738281 40.761719 249.578125 42.191406 249.421875 C 43.617188 249.269531 45.144531 249.121094 46.769531 248.976562 C 48.398438 248.832031 50.121094 248.695312 51.9375 248.5625 C 53.75 248.433594 55.652344 248.308594 57.632812 248.191406 C 59.617188 248.074219 61.679688 247.960938 63.8125 247.859375 C 65.945312 247.757812 68.144531 247.660156 70.410156 247.574219 C 72.671875 247.484375 74.988281 247.40625 77.363281 247.335938 C 79.734375 247.265625 82.148438 247.203125 84.601562 247.148438 C 87.058594 247.09375 89.546875 247.046875 92.0625 247.011719 C 94.582031 246.976562 97.117188 246.949219 99.671875 246.929688 C 102.226562 246.914062 104.785156 246.902344 107.351562 246.902344 C 109.917969 246.902344 112.480469 246.914062 115.035156 246.929688 C 117.589844 246.949219 120.125 246.976562 122.640625 247.011719 C 125.160156 247.046875 127.644531 247.09375 130.101562 247.148438 C 132.558594 247.203125 134.972656 247.265625 137.34375 247.335938 C 139.714844 247.40625 142.03125 247.484375 144.296875 247.574219 C 146.558594 247.660156 148.757812 247.757812 150.894531 247.859375 C 153.027344 247.960938 155.085938 248.074219 157.070312 248.191406 C 159.054688 248.308594 160.953125 248.433594 162.769531 248.5625 C 164.585938 248.695312 166.304688 248.832031 167.933594 248.976562 C 169.5625 249.121094 171.089844 249.269531 172.515625 249.421875 C 173.941406 249.578125 175.261719 249.738281 176.46875 249.902344 C 177.679688 250.066406 178.777344 250.234375 179.757812 250.402344 C 180.742188 250.574219 181.605469 250.75 182.347656 250.929688 C 183.09375 251.105469 183.71875 251.285156 184.21875 251.46875 C 184.71875 251.648438 185.09375 251.832031 185.347656 252.019531 C 185.597656 252.203125 185.722656 252.386719 185.722656 252.574219 Z M 185.722656 252.574219 " fill-opacity="0.2" fill-rule="nonzero"/></g><path fill="#ffbe4d" d="M 72.234375 198.558594 L 55.191406 213.945312 L 55.132812 214 L 28.902344 214 C 27.921875 214 27.453125 212.792969 28.183594 212.140625 L 36.765625 204.386719 L 43.222656 198.558594 Z M 72.234375 198.558594 " fill-opacity="1" fill-rule="nonzero"/><g clip-path="url(#5f8c60acba)"><path fill="#4f124c" d="M 53.292969 215.0625 L 28.902344 215.0625 C 28.011719 215.0625 27.226562 214.527344 26.90625 213.699219 C 26.582031 212.867188 26.800781 211.949219 27.464844 211.351562 L 42.511719 197.769531 C 42.707031 197.59375 42.960938 197.5 43.230469 197.5 L 72.242188 197.5 C 72.679688 197.5 73.078125 197.769531 73.234375 198.175781 C 73.394531 198.582031 73.285156 199.050781 72.953125 199.347656 L 57.207031 213.558594 C 56.128906 214.527344 54.742188 215.0625 53.292969 215.0625 Z M 28.894531 212.941406 C 28.894531 212.941406 28.902344 212.941406 28.894531 212.941406 L 53.292969 212.941406 C 54.210938 212.941406 55.09375 212.601562 55.777344 211.988281 L 69.476562 199.628906 L 43.636719 199.628906 L 28.894531 212.925781 C 28.894531 212.925781 28.894531 212.925781 28.894531 212.941406 C 28.894531 212.933594 28.894531 212.933594 28.894531 212.941406 Z M 28.894531 212.941406 " fill-opacity="1" fill-rule="nonzero"/></g><path fill="#4f124c" d="M 72.234375 198.558594 L 60.402344 209.238281 C 58.621094 206.722656 46.535156 201.859375 36.765625 204.386719 L 43.222656 198.558594 Z M 72.234375 198.558594 " fill-opacity="0.2" fill-rule="nonzero"/><path fill="#ffffff" d="M 182.445312 201.332031 C 181.613281 203.230469 180.765625 204.953125 180.136719 206.28125 C 174.855469 217.542969 180.734375 226.445312 174.453125 233.347656 C 168.359375 240.054688 152.347656 238.953125 152.238281 234.496094 C 152.085938 228.34375 163.089844 229.074219 165.3125 225.390625 C 167.917969 221.085938 164.59375 220.792969 164.996094 204.328125 C 165.0625 201.523438 165.628906 198.566406 166.601562 195.789062 C 169.3125 188.054688 175.191406 181.800781 182.277344 184.742188 C 187.832031 187.058594 185.1875 195.125 182.445312 201.332031 Z M 182.445312 201.332031 " fill-opacity="1" fill-rule="nonzero"/><path fill="#ffa238" d="M 183.71875 198.25 C 181.863281 202.628906 176.679688 202.761719 173.402344 201.761719 C 169.960938 200.707031 167.347656 197.4375 168.191406 192.15625 C 170.28125 187.714844 175.203125 181.820312 182.289062 184.761719 C 187.832031 187.058594 185.417969 193.878906 183.71875 198.25 Z M 183.71875 198.25 " fill-opacity="1" fill-rule="nonzero"/><path fill="#ffa238" d="M 183.71875 198.25 C 181.863281 202.628906 176.679688 202.761719 173.402344 201.761719 C 169.960938 200.707031 167.347656 197.4375 168.191406 192.15625 C 170.28125 187.714844 175.203125 181.820312 182.289062 184.761719 C 187.832031 187.058594 185.417969 193.878906 183.71875 198.25 Z M 183.71875 198.25 " fill-opacity="1" fill-rule="nonzero"/><path fill="#ffffff" d="M 167.144531 227.519531 C 169.753906 223.214844 166.425781 222.921875 166.828125 206.457031 C 166.894531 203.652344 167.460938 200.695312 168.4375 197.917969 C 171.148438 190.183594 177.027344 183.929688 184.109375 186.871094 C 184.335938 186.96875 184.546875 187.074219 184.75 187.1875 C 184.261719 185.988281 183.386719 185.027344 181.976562 184.445312 C 174.894531 181.503906 169.015625 187.75 166.304688 195.492188 C 165.332031 198.261719 164.761719 201.226562 164.695312 204.03125 C 164.292969 220.492188 167.621094 220.789062 165.011719 225.09375 C 162.789062 228.773438 151.789062 228.046875 151.941406 234.199219 C 151.964844 235.1875 152.769531 236.003906 154.074219 236.617188 C 153.925781 230.472656 164.921875 231.203125 167.144531 227.519531 Z M 167.144531 227.519531 " fill-opacity="0.6" fill-rule="nonzero"/><path fill="#4f124c" d="M 181.953125 184.648438 C 181.386719 184.410156 180.832031 184.238281 180.285156 184.117188 C 183.457031 187.289062 181.132812 194.144531 178.738281 199.578125 C 177.902344 201.476562 177.054688 203.199219 176.429688 204.527344 C 171.148438 215.789062 177.027344 224.695312 170.746094 231.59375 C 166.574219 236.1875 157.765625 237.113281 152.582031 235.824219 C 155.675781 238.996094 168.753906 239.152344 174.125 233.238281 C 180.40625 226.335938 174.527344 217.425781 179.808594 206.171875 C 180.4375 204.84375 181.277344 203.121094 182.117188 201.222656 C 184.851562 195.019531 187.503906 186.953125 181.953125 184.648438 Z M 181.953125 184.648438 " fill-opacity="0.2" fill-rule="nonzero"/><path fill="#4f124c" d="M 161.101562 239.171875 C 158.695312 239.171875 156.417969 238.835938 154.683594 238.195312 C 151.683594 237.089844 151.203125 235.421875 151.179688 234.523438 C 151.132812 232.53125 152.058594 230.890625 153.933594 229.667969 C 155.445312 228.679688 157.363281 228.058594 159.226562 227.460938 C 161.425781 226.75 163.703125 226.007812 164.410156 224.851562 C 165.523438 223.011719 165.386719 222.207031 164.929688 219.527344 C 164.453125 216.753906 163.742188 212.5625 163.941406 204.316406 C 164.03125 200.597656 164.964844 196.605469 166.5625 193.078125 C 168.277344 189.285156 170.585938 186.375 173.238281 184.660156 C 176.203125 182.742188 179.472656 182.4375 182.695312 183.773438 C 184.335938 184.453125 185.472656 185.605469 186.082031 187.195312 C 186.953125 189.449219 186.742188 192.519531 185.4375 196.570312 C 184.382812 199.839844 182.820312 203.132812 181.667969 205.535156 C 181.464844 205.957031 181.277344 206.359375 181.101562 206.722656 C 178.671875 211.902344 178.699219 216.667969 178.730469 220.871094 C 178.761719 225.644531 178.792969 230.152344 175.246094 234.050781 C 173.042969 236.476562 169.417969 238.1875 165.050781 238.855469 C 163.746094 239.066406 162.40625 239.171875 161.101562 239.171875 Z M 178.738281 185.078125 C 177.25 185.078125 175.800781 185.53125 174.394531 186.441406 C 172.121094 187.910156 170.027344 190.578125 168.496094 193.949219 C 167.011719 197.226562 166.152344 200.925781 166.066406 204.363281 C 165.871094 212.40625 166.566406 216.476562 167.023438 219.167969 C 167.492188 221.921875 167.75 223.4375 166.230469 225.949219 C 165.117188 227.792969 162.578125 228.613281 159.882812 229.484375 C 155.871094 230.78125 153.246094 231.832031 153.3125 234.476562 C 153.324219 235.078125 154.117188 235.71875 155.425781 236.203125 C 156.886719 236.746094 158.890625 237.046875 161.074219 237.046875 C 165.574219 237.046875 170.832031 235.769531 173.667969 232.644531 C 176.660156 229.359375 176.636719 225.628906 176.605469 220.902344 C 176.574219 216.476562 176.542969 211.453125 179.175781 205.835938 C 179.351562 205.46875 179.542969 205.0625 179.75 204.636719 C 180.867188 202.285156 182.402344 199.0625 183.410156 195.933594 C 184.542969 192.410156 184.773438 189.730469 184.097656 187.96875 C 183.695312 186.925781 182.96875 186.199219 181.878906 185.746094 C 180.820312 185.296875 179.773438 185.078125 178.738281 185.078125 Z M 178.738281 185.078125 " fill-opacity="1" fill-rule="nonzero"/><path fill="#ffffff" d="M 159.042969 232.285156 C 157.972656 237.472656 156.304688 241.25 153.898438 243.984375 C 149.089844 249.457031 141.347656 250.738281 129.652344 250.738281 C 123.457031 250.738281 119.285156 250.257812 116.484375 249.632812 C 113.199219 248.90625 111.792969 247.988281 111.195312 247.417969 C 110.863281 247.097656 110.789062 246.886719 110.789062 246.886719 C 109.800781 248.117188 104.160156 250.628906 97.777344 250.628906 C 86.863281 250.628906 87.238281 248.03125 87.238281 248.03125 C 84.609375 249.261719 87.398438 250.738281 73.9375 250.738281 C 63.800781 250.738281 64.230469 245.4375 65.722656 240.304688 C 66.21875 238.617188 66.820312 236.945312 67.203125 235.488281 C 68.0625 232.207031 66.429688 221.867188 65.316406 212.253906 C 64.421875 204.5625 63.855469 197.339844 65.15625 194.59375 C 69.855469 184.6875 93.324219 181.347656 118.023438 181.347656 C 138.246094 181.347656 154.992188 205.042969 158.640625 222.183594 C 159.457031 225.980469 159.628906 229.453125 159.042969 232.285156 Z M 159.042969 232.285156 " fill-opacity="1" fill-rule="nonzero"/><path fill="#ffa238" d="M 153.898438 243.984375 C 149.089844 249.457031 141.347656 250.738281 129.652344 250.738281 C 123.457031 250.738281 120.972656 250.578125 118.171875 249.960938 C 117.675781 246.550781 116.027344 241.480469 119.21875 238.984375 C 124.140625 235.121094 140.75 233.664062 153.898438 243.984375 Z M 153.898438 243.984375 " fill-opacity="1" fill-rule="nonzero"/><path fill="#ffa238" d="M 111.195312 242.367188 L 111.195312 247.414062 C 110.863281 247.089844 110.789062 246.878906 110.789062 246.878906 C 109.800781 248.109375 104.160156 250.621094 97.777344 250.621094 C 86.863281 250.621094 87.238281 248.027344 87.238281 248.027344 C 84.609375 249.257812 87.398438 250.730469 73.9375 250.730469 C 63.800781 250.730469 64.230469 245.429688 65.722656 240.296875 C 68.75 238.382812 73.148438 236.464844 78.601562 236.464844 C 89.476562 236.464844 88.023438 240.28125 88.023438 240.28125 C 88.023438 240.28125 94.90625 236.464844 101.328125 236.464844 C 107.75 236.464844 111.195312 242.367188 111.195312 242.367188 Z M 111.195312 242.367188 " fill-opacity="1" fill-rule="nonzero"/><path fill="#4f124c" d="M 129.652344 251.796875 C 122.253906 251.796875 116.734375 251.125 113.261719 249.800781 C 111.996094 249.316406 111.183594 248.8125 110.667969 248.371094 C 109.589844 249.09375 108.011719 249.765625 106.644531 250.222656 C 104.652344 250.886719 101.5 251.6875 97.777344 251.6875 C 92.003906 251.6875 88.339844 250.96875 86.878906 249.546875 C 86.824219 249.597656 86.777344 249.652344 86.722656 249.707031 C 85.394531 251.003906 84.066406 251.804688 73.9375 251.804688 C 69.441406 251.804688 66.523438 250.796875 65.003906 248.734375 C 62.824219 245.761719 64.191406 241.53125 65.390625 237.800781 C 65.683594 236.882812 65.960938 236.015625 66.167969 235.222656 C 66.796875 232.820312 65.882812 225.492188 64.992188 218.410156 C 64.382812 213.535156 63.75 208.492188 63.472656 204.183594 C 63.140625 199.070312 63.375 195.878906 64.195312 194.136719 C 65.425781 191.546875 67.855469 189.28125 71.425781 187.40625 C 74.625 185.726562 78.808594 184.320312 83.859375 183.222656 C 92.691406 181.304688 104.503906 180.285156 118.023438 180.285156 C 123.367188 180.285156 128.722656 181.867188 133.933594 184.984375 C 138.570312 187.757812 142.949219 191.640625 146.953125 196.515625 C 151.527344 202.101562 155.371094 208.808594 157.777344 215.402344 C 160.175781 221.996094 161 228.066406 160.085938 232.511719 C 159.257812 236.53125 158.070312 239.742188 156.46875 242.3125 C 154.859375 244.882812 152.824219 246.84375 150.242188 248.285156 C 147.847656 249.625 144.941406 250.546875 141.355469 251.101562 C 138.234375 251.574219 134.515625 251.796875 129.652344 251.796875 Z M 111.761719 246.453125 C 111.890625 246.644531 114.199219 249.675781 129.652344 249.675781 C 139.421875 249.675781 145.082031 248.734375 149.199219 246.429688 C 153.769531 243.871094 156.484375 239.445312 158.003906 232.074219 C 159.761719 223.546875 154.304688 208.832031 145.308594 197.851562 C 137.144531 187.890625 127.460938 182.402344 118.035156 182.402344 C 104.667969 182.402344 93.007812 183.398438 84.328125 185.289062 C 79.464844 186.34375 75.464844 187.691406 72.4375 189.28125 C 69.28125 190.9375 67.160156 192.875 66.140625 195.042969 L 65.175781 194.585938 L 66.140625 195.042969 C 64.628906 198.230469 66.011719 209.269531 67.125 218.144531 C 68.125 226.09375 68.984375 232.960938 68.253906 235.757812 C 68.027344 236.605469 67.742188 237.496094 67.4375 238.441406 C 66.386719 241.695312 65.207031 245.382812 66.742188 247.480469 C 67.808594 248.933594 70.230469 249.675781 73.949219 249.675781 C 78.472656 249.675781 81.507812 249.503906 83.210938 249.152344 C 84.515625 248.886719 84.820312 248.589844 85.234375 248.183594 C 85.570312 247.855469 85.992188 247.441406 86.792969 247.066406 C 87.148438 246.902344 87.566406 246.941406 87.886719 247.175781 C 88.132812 247.363281 88.285156 247.644531 88.3125 247.945312 C 88.476562 248.171875 89.835938 249.558594 97.789062 249.558594 C 100.464844 249.558594 103.375 249.082031 105.976562 248.207031 C 108.449219 247.375 109.726562 246.507812 109.964844 246.21875 C 110.210938 245.914062 110.597656 245.769531 110.984375 245.835938 C 111.324219 245.898438 111.621094 246.128906 111.761719 246.453125 Z M 88.292969 248.175781 Z M 88.292969 248.175781 Z M 88.292969 248.171875 Z M 111.792969 246.535156 Z M 111.792969 246.535156 Z M 111.757812 246.441406 Z M 111.757812 246.441406 " fill-opacity="1" fill-rule="nonzero"/><path fill="#4f124c" d="M 87.238281 249.085938 C 87.203125 249.085938 87.160156 249.085938 87.125 249.082031 C 86.539062 249.015625 86.117188 248.492188 86.179688 247.910156 C 86.203125 247.691406 88.617188 225.859375 88.464844 216.050781 C 88.457031 215.460938 88.925781 214.984375 89.511719 214.972656 C 89.515625 214.972656 89.523438 214.972656 89.53125 214.972656 C 90.109375 214.972656 90.582031 215.4375 90.59375 216.015625 C 90.746094 225.953125 88.394531 247.238281 88.300781 248.140625 C 88.238281 248.6875 87.773438 249.085938 87.238281 249.085938 Z M 87.238281 249.085938 " fill-opacity="1" fill-rule="nonzero"/><path fill="#4f124c" d="M 109.726562 247 C 109.722656 246.953125 109.714844 246.898438 109.714844 246.855469 L 109.710938 246.734375 C 109.703125 246.65625 109.699219 246.5625 109.699219 246.492188 L 109.6875 246.019531 L 109.6875 245.550781 C 109.6875 245.394531 109.6875 245.242188 109.691406 245.089844 L 109.703125 244.628906 C 109.710938 244.476562 109.710938 244.320312 109.722656 244.167969 L 109.78125 243.257812 C 109.808594 242.957031 109.839844 242.65625 109.867188 242.355469 C 109.898438 242.050781 109.921875 241.753906 109.964844 241.449219 L 110.074219 240.554688 C 110.09375 240.402344 110.113281 240.257812 110.136719 240.105469 L 110.203125 239.660156 C 110.375 238.472656 110.59375 237.289062 110.820312 236.113281 L 111.191406 234.355469 C 111.25 234.0625 111.316406 233.773438 111.390625 233.480469 L 111.597656 232.609375 L 111.804688 231.734375 L 111.914062 231.296875 L 112.03125 230.867188 L 112.257812 230 L 112.367188 229.570312 L 112.585938 228.695312 L 112.699219 228.265625 L 112.933594 227.398438 C 113.089844 226.824219 113.25 226.246094 113.417969 225.675781 C 113.609375 225.113281 113.808594 224.546875 114.015625 223.988281 C 114.230469 223.433594 114.441406 222.875 114.691406 222.328125 C 114.941406 221.78125 115.203125 221.25 115.492188 220.714844 C 115.632812 220.449219 115.777344 220.1875 115.929688 219.925781 C 116.082031 219.664062 116.238281 219.40625 116.410156 219.148438 C 116.527344 218.980469 116.75 218.9375 116.921875 219.054688 C 117.03125 219.125 117.09375 219.253906 117.082031 219.378906 L 117.082031 219.386719 C 117.054688 219.691406 117.027344 219.992188 116.984375 220.289062 C 116.941406 220.585938 116.898438 220.882812 116.84375 221.175781 C 116.738281 221.765625 116.617188 222.339844 116.484375 222.917969 C 116.234375 224.070312 115.933594 225.210938 115.59375 226.332031 C 115.4375 226.894531 115.257812 227.453125 115.082031 228.015625 L 114.816406 228.855469 L 114.679688 229.273438 L 114.558594 229.695312 C 114.242188 230.824219 113.925781 231.953125 113.667969 233.09375 L 113.46875 233.949219 C 113.402344 234.234375 113.328125 234.519531 113.273438 234.804688 L 112.914062 236.519531 C 112.695312 237.667969 112.480469 238.8125 112.316406 239.964844 L 112.25 240.394531 C 112.226562 240.542969 112.214844 240.679688 112.195312 240.828125 L 112.085938 241.6875 C 112.050781 241.972656 112.019531 242.265625 111.996094 242.546875 C 111.96875 242.832031 111.941406 243.125 111.914062 243.410156 L 111.859375 244.269531 C 111.847656 244.417969 111.847656 244.554688 111.84375 244.703125 L 111.828125 245.125 C 111.824219 245.273438 111.824219 245.410156 111.824219 245.550781 L 111.824219 245.976562 L 111.835938 246.386719 C 111.835938 246.460938 111.84375 246.519531 111.847656 246.589844 L 111.855469 246.683594 L 111.859375 246.757812 L 111.867188 246.8125 C 111.914062 247.394531 111.484375 247.910156 110.898438 247.957031 C 110.292969 248.007812 109.78125 247.582031 109.726562 247 Z M 109.726562 247 " fill-opacity="1" fill-rule="nonzero"/><path fill="#4f124c" d="M 134.292969 212.601562 L 133.949219 212.859375 L 133.601562 213.128906 C 133.367188 213.308594 133.144531 213.492188 132.910156 213.679688 C 132.460938 214.050781 132.015625 214.429688 131.578125 214.820312 C 130.707031 215.597656 129.878906 216.402344 129.105469 217.25 C 127.558594 218.945312 126.222656 220.792969 125.308594 222.800781 C 125.078125 223.304688 124.882812 223.8125 124.707031 224.335938 L 124.585938 224.730469 C 124.542969 224.855469 124.511719 224.992188 124.476562 225.125 C 124.457031 225.191406 124.4375 225.257812 124.421875 225.324219 L 124.371094 225.523438 C 124.339844 225.65625 124.304688 225.792969 124.285156 225.925781 C 124.175781 226.457031 124.109375 227 124.074219 227.542969 C 124.050781 227.816406 124.050781 228.089844 124.050781 228.363281 C 124.054688 228.636719 124.0625 228.910156 124.085938 229.183594 C 124.097656 229.453125 124.140625 229.726562 124.171875 230 L 124.238281 230.40625 C 124.25 230.472656 124.257812 230.539062 124.273438 230.613281 L 124.316406 230.8125 C 124.421875 231.351562 124.578125 231.886719 124.742188 232.414062 C 125.097656 233.46875 125.558594 234.496094 126.109375 235.488281 C 126.394531 236.003906 126.207031 236.648438 125.6875 236.933594 C 125.613281 236.976562 125.535156 237.003906 125.457031 237.03125 L 125.4375 237.035156 L 125.359375 237.058594 L 125.078125 237.140625 C 124.949219 237.175781 124.824219 237.21875 124.695312 237.261719 C 124.4375 237.34375 124.183594 237.4375 123.925781 237.53125 C 123.421875 237.726562 122.921875 237.945312 122.433594 238.183594 C 121.464844 238.660156 120.558594 239.226562 119.785156 239.90625 C 119.402344 240.246094 119.054688 240.609375 118.761719 241.003906 C 118.46875 241.394531 118.238281 241.808594 118.078125 242.246094 C 117.914062 242.683594 117.828125 243.132812 117.804688 243.597656 L 117.800781 243.773438 L 117.800781 243.980469 L 117.804688 244.394531 C 117.816406 244.664062 117.816406 244.945312 117.84375 245.210938 C 117.871094 245.75 117.925781 246.277344 118.03125 246.757812 C 118.132812 247.242188 118.292969 247.667969 118.5 247.988281 L 118.535156 248.050781 L 118.578125 248.105469 C 118.609375 248.140625 118.632812 248.175781 118.664062 248.214844 C 118.695312 248.242188 118.730469 248.28125 118.761719 248.3125 C 118.78125 248.328125 118.792969 248.347656 118.808594 248.359375 L 118.867188 248.402344 C 119 248.523438 119.175781 248.621094 119.363281 248.71875 C 119.753906 248.898438 120.234375 249.027344 120.746094 249.117188 C 121.265625 249.207031 121.808594 249.273438 122.367188 249.324219 C 122.921875 249.378906 123.496094 249.414062 124.0625 249.449219 C 125.207031 249.523438 126.363281 249.597656 127.519531 249.6875 C 128.105469 249.734375 128.542969 250.246094 128.5 250.828125 C 128.453125 251.410156 127.941406 251.847656 127.355469 251.804688 C 126.21875 251.714844 125.078125 251.644531 123.921875 251.566406 C 123.34375 251.523438 122.765625 251.488281 122.171875 251.433594 C 121.582031 251.378906 120.984375 251.3125 120.371094 251.203125 C 119.753906 251.089844 119.109375 250.9375 118.449219 250.628906 C 118.371094 250.589844 118.285156 250.542969 118.207031 250.5 C 118.128906 250.457031 118.042969 250.414062 117.964844 250.359375 L 117.726562 250.203125 C 117.648438 250.148438 117.574219 250.082031 117.5 250.019531 L 117.390625 249.929688 C 117.355469 249.898438 117.316406 249.863281 117.289062 249.828125 C 117.21875 249.761719 117.148438 249.6875 117.082031 249.613281 C 117.019531 249.542969 116.957031 249.464844 116.898438 249.390625 C 116.867188 249.355469 116.835938 249.3125 116.804688 249.273438 L 116.726562 249.152344 L 116.574219 248.910156 L 116.445312 248.664062 L 116.386719 248.542969 C 116.367188 248.5 116.347656 248.457031 116.332031 248.417969 L 116.234375 248.171875 L 116.210938 248.109375 L 116.191406 248.050781 L 116.15625 247.929688 L 116.074219 247.6875 C 116.03125 247.523438 115.996094 247.363281 115.953125 247.199219 C 115.820312 246.558594 115.757812 245.945312 115.722656 245.339844 C 115.699219 245.035156 115.699219 244.738281 115.6875 244.433594 L 115.679688 243.992188 L 115.679688 243.769531 L 115.6875 243.511719 C 115.714844 242.832031 115.84375 242.148438 116.085938 241.503906 C 116.324219 240.863281 116.660156 240.273438 117.054688 239.742188 C 117.453125 239.214844 117.902344 238.738281 118.378906 238.316406 C 118.851562 237.890625 119.363281 237.519531 119.882812 237.1875 C 120.40625 236.855469 120.941406 236.550781 121.492188 236.285156 C 122.039062 236.011719 122.597656 235.773438 123.164062 235.554688 C 123.453125 235.445312 123.730469 235.34375 124.023438 235.253906 C 124.171875 235.203125 124.316406 235.15625 124.464844 235.113281 L 124.6875 235.046875 L 124.804688 235.015625 L 124.933594 234.980469 L 124.261719 236.519531 C 123.660156 235.429688 123.140625 234.28125 122.738281 233.082031 C 122.542969 232.480469 122.367188 231.867188 122.246094 231.242188 L 122.199219 231.011719 C 122.179688 230.933594 122.167969 230.855469 122.15625 230.777344 L 122.074219 230.304688 C 122.039062 229.988281 121.984375 229.671875 121.964844 229.351562 C 121.929688 229.035156 121.921875 228.714844 121.910156 228.394531 C 121.910156 228.070312 121.90625 227.75 121.921875 227.429688 C 121.949219 226.785156 122.015625 226.148438 122.128906 225.511719 C 122.15625 225.355469 122.191406 225.195312 122.222656 225.039062 L 122.269531 224.804688 C 122.289062 224.722656 122.308594 224.644531 122.324219 224.566406 C 122.367188 224.410156 122.398438 224.257812 122.445312 224.097656 L 122.582031 223.636719 C 122.777344 223.027344 123.011719 222.429688 123.277344 221.855469 C 123.804688 220.695312 124.488281 219.625 125.253906 218.628906 C 125.640625 218.132812 126.046875 217.660156 126.46875 217.203125 C 126.894531 216.75 127.339844 216.316406 127.800781 215.90625 C 128.722656 215.082031 129.703125 214.335938 130.738281 213.671875 C 131.25 213.339844 131.777344 213.03125 132.320312 212.746094 C 132.589844 212.601562 132.863281 212.464844 133.144531 212.339844 C 133.285156 212.273438 133.421875 212.210938 133.5625 212.152344 C 133.703125 212.089844 133.84375 212.03125 133.996094 211.976562 C 134.179688 211.902344 134.386719 212 134.460938 212.179688 C 134.515625 212.332031 134.464844 212.496094 134.34375 212.59375 Z M 134.292969 212.601562 " fill-opacity="1" fill-rule="nonzero"/><path fill="#4f124c" d="M 83.417969 214.097656 C 83.433594 214.097656 83.449219 214.097656 83.460938 214.097656 L 83.511719 214.105469 L 83.609375 214.117188 L 83.808594 214.132812 L 84.207031 214.175781 C 84.46875 214.207031 84.730469 214.230469 84.984375 214.253906 C 85.503906 214.304688 86.007812 214.347656 86.507812 214.382812 C 87.007812 214.417969 87.507812 214.449219 88.007812 214.46875 C 88.507812 214.484375 89.003906 214.511719 89.503906 214.511719 C 90.503906 214.511719 91.515625 214.460938 92.539062 214.378906 C 92.667969 214.363281 92.792969 214.359375 92.921875 214.347656 L 93.3125 214.308594 C 93.574219 214.292969 93.828125 214.253906 94.097656 214.230469 C 94.359375 214.207031 94.628906 214.171875 94.894531 214.148438 C 95.164062 214.117188 95.433594 214.085938 95.71875 214.074219 L 95.742188 214.074219 C 95.984375 214.0625 96.195312 214.253906 96.207031 214.5 C 96.210938 214.644531 96.144531 214.785156 96.035156 214.867188 C 95.808594 215.042969 95.570312 215.207031 95.328125 215.359375 C 95.207031 215.433594 95.085938 215.503906 94.957031 215.578125 L 94.769531 215.6875 C 94.707031 215.722656 94.640625 215.753906 94.578125 215.785156 C 94.324219 215.910156 94.0625 216.039062 93.792969 216.140625 C 93.660156 216.195312 93.523438 216.25 93.390625 216.304688 C 93.257812 216.355469 93.117188 216.402344 92.984375 216.445312 L 92.777344 216.511719 C 92.710938 216.535156 92.636719 216.554688 92.570312 216.574219 C 92.429688 216.613281 92.289062 216.652344 92.148438 216.6875 C 92.007812 216.722656 91.867188 216.753906 91.722656 216.785156 C 91.582031 216.816406 91.4375 216.84375 91.296875 216.871094 C 91.148438 216.894531 91.007812 216.917969 90.863281 216.941406 C 90.71875 216.960938 90.570312 216.980469 90.429688 216.996094 L 90.210938 217.019531 L 89.992188 217.035156 C 89.847656 217.039062 89.699219 217.058594 89.554688 217.058594 C 88.382812 217.101562 87.195312 216.972656 86.070312 216.621094 C 85.507812 216.445312 84.960938 216.222656 84.441406 215.9375 C 84.1875 215.789062 83.929688 215.632812 83.695312 215.457031 C 83.632812 215.414062 83.570312 215.367188 83.515625 215.316406 C 83.457031 215.269531 83.402344 215.21875 83.339844 215.171875 C 83.285156 215.121094 83.226562 215.070312 83.171875 215.015625 L 83.042969 214.886719 C 83.03125 214.867188 83.019531 214.855469 82.992188 214.839844 C 82.828125 214.679688 82.824219 214.425781 82.980469 214.261719 C 83.042969 214.195312 83.121094 214.160156 83.199219 214.140625 Z M 83.417969 214.097656 " fill-opacity="1" fill-rule="nonzero"/><g mask="url(#122a39f884)"><g transform="matrix(1, 0, 0, 1, 64, 194)"><g clip-path="url(#6f149fcfda)"><g clip-path="url(#be19aa81cf)"><path fill="#4f124c" d="M 3.84375 32.96875 C 4.988281 28.601562 1.710938 11.691406 1.121094 0.683594 C -1.097656 5.679688 2.382812 24.28125 3.253906 34.933594 C 3.480469 34.246094 3.679688 33.585938 3.84375 32.96875 Z M 3.84375 32.96875 " fill-opacity="1" fill-rule="nonzero"/></g><g clip-path="url(#a52284f8f4)"><path fill="#4f124c" d="M 90.53125 41.464844 C 85.722656 46.933594 77.980469 48.214844 66.285156 48.214844 C 60.089844 48.214844 55.917969 47.734375 53.117188 47.113281 C 49.832031 46.382812 48.425781 45.46875 47.828125 44.898438 C 47.496094 44.578125 47.421875 44.363281 47.421875 44.363281 C 46.433594 45.59375 40.800781 50.542969 34.417969 50.542969 C 23.5 50.542969 23.871094 45.511719 23.871094 45.511719 C 21.242188 46.742188 21.570312 51.648438 10.203125 50.914062 C 5.191406 50.585938 3.121094 46.917969 2.132812 44.976562 C 1.992188 45.414062 1.859375 45.855469 1.722656 46.304688 C 0.230469 51.441406 -0.199219 56.738281 9.9375 56.738281 C 23.398438 56.738281 20.609375 55.261719 23.238281 54.03125 C 23.238281 54.03125 22.863281 56.628906 33.777344 56.628906 C 40.160156 56.628906 45.800781 54.117188 46.789062 52.886719 C 46.789062 52.886719 46.863281 53.097656 47.195312 53.417969 C 47.789062 53.988281 49.199219 54.910156 52.484375 55.632812 C 55.285156 56.257812 59.457031 56.738281 65.652344 56.738281 C 77.347656 56.738281 85.089844 55.460938 89.898438 49.984375 C 92.304688 47.25 93.976562 43.472656 95.042969 38.285156 C 95.441406 36.371094 95.488281 34.152344 95.226562 31.738281 C 94.160156 35.925781 92.625 39.09375 90.53125 41.464844 Z M 90.53125 41.464844 " fill-opacity="1" fill-rule="nonzero"/></g></g></g></g><path fill="#4f124c" d="M 158.648438 222.175781 C 142.464844 220.242188 136.957031 209.519531 136.957031 209.519531 L 64.988281 209.246094 C 64.09375 201.554688 63.859375 197.339844 65.164062 194.585938 C 69.859375 184.683594 93.332031 181.339844 118.03125 181.339844 C 138.253906 181.339844 155 205.03125 158.648438 222.175781 Z M 158.648438 222.175781 " fill-opacity="0.2" fill-rule="nonzero"/><path fill="#ffa238" d="M 133.800781 164.382812 C 133.800781 167.644531 133.230469 170.800781 132.15625 173.785156 C 131.578125 175.398438 130.859375 176.960938 130 178.460938 C 123.261719 190.3125 108.285156 198.558594 90.886719 198.558594 C 74.082031 198.558594 59.535156 190.871094 52.492188 179.660156 C 49.832031 175.429688 48.242188 170.695312 48.003906 165.679688 C 47.980469 165.25 47.972656 164.8125 47.972656 164.378906 C 47.972656 145.503906 67.1875 130.203125 90.886719 130.203125 C 114.589844 130.203125 133.800781 145.503906 133.800781 164.382812 Z M 133.800781 164.382812 " fill-opacity="1" fill-rule="nonzero"/><path fill="#ffffff" d="M 130 178.460938 C 123.261719 190.3125 108.285156 198.558594 90.886719 198.558594 C 74.082031 198.558594 59.535156 190.871094 52.492188 179.660156 C 51.609375 175.433594 52.550781 169.164062 62.0625 168.914062 C 78.308594 168.488281 78.535156 159.015625 89.585938 159.015625 C 98.105469 159.015625 99.246094 164.820312 106.980469 168.914062 C 111.09375 171.089844 126.058594 172.535156 130 178.460938 Z M 130 178.460938 " fill-opacity="1" fill-rule="nonzero"/><path fill="#4f124c" d="M 90.894531 199.621094 C 82.609375 199.621094 74.539062 197.765625 67.558594 194.257812 C 60.734375 190.832031 55.21875 185.980469 51.597656 180.226562 C 50.089844 177.824219 48.925781 175.277344 48.140625 172.664062 C 47.328125 169.96875 46.921875 167.179688 46.921875 164.382812 C 46.921875 159.59375 48.097656 154.953125 50.417969 150.585938 C 52.644531 146.390625 55.832031 142.617188 59.890625 139.390625 C 63.925781 136.175781 68.625 133.652344 73.855469 131.886719 C 79.257812 130.066406 84.992188 129.144531 90.898438 129.144531 C 96.808594 129.144531 102.546875 130.066406 107.945312 131.886719 C 113.171875 133.644531 117.867188 136.175781 121.90625 139.390625 C 125.960938 142.621094 129.148438 146.390625 131.378906 150.585938 C 133.699219 154.953125 134.875 159.597656 134.875 164.382812 C 134.875 169.476562 133.546875 174.390625 130.9375 178.988281 C 127.480469 185.070312 121.953125 190.230469 114.949219 193.902344 C 107.792969 197.644531 99.476562 199.621094 90.894531 199.621094 Z M 90.894531 131.261719 C 79.671875 131.261719 69.128906 134.738281 61.21875 141.039062 C 53.371094 147.285156 49.046875 155.578125 49.046875 164.378906 C 49.046875 169.550781 50.515625 174.5 53.402344 179.097656 C 60.535156 190.445312 74.898438 197.5 90.894531 197.5 C 107.339844 197.5 122.324219 189.820312 129.074219 177.9375 C 131.503906 173.667969 132.734375 169.101562 132.734375 164.382812 C 132.734375 155.582031 128.417969 147.292969 120.566406 141.046875 C 112.652344 134.738281 102.113281 131.261719 90.894531 131.261719 Z M 90.894531 131.261719 " fill-opacity="1" fill-rule="nonzero"/><path fill="#4f124c" d="M 99.714844 169.957031 C 99.71875 170.019531 99.71875 170.066406 99.71875 170.121094 C 99.71875 170.175781 99.71875 170.222656 99.71875 170.273438 C 99.71875 170.375 99.707031 170.472656 99.703125 170.570312 C 99.675781 170.769531 99.648438 170.964844 99.597656 171.152344 C 99.507812 171.535156 99.367188 171.910156 99.183594 172.261719 C 98.824219 172.972656 98.292969 173.621094 97.625 174.125 C 97.460938 174.25 97.285156 174.367188 97.101562 174.46875 C 96.917969 174.574219 96.734375 174.667969 96.539062 174.761719 C 96.15625 174.9375 95.761719 175.074219 95.359375 175.191406 C 94.957031 175.300781 94.546875 175.390625 94.140625 175.433594 C 93.734375 175.480469 93.324219 175.496094 92.917969 175.480469 C 92.515625 175.464844 92.101562 175.414062 91.703125 175.335938 C 91.3125 175.257812 90.917969 175.15625 90.527344 175.015625 C 89.753906 174.742188 88.992188 174.316406 88.355469 173.730469 C 88.035156 173.4375 87.75 173.105469 87.507812 172.753906 C 87.261719 172.394531 87.0625 172.019531 86.902344 171.625 C 86.746094 171.230469 86.625 170.832031 86.542969 170.425781 C 86.503906 170.21875 86.472656 170.011719 86.453125 169.804688 C 86.433594 169.59375 86.417969 169.386719 86.421875 169.15625 C 86.429688 168.566406 86.910156 168.101562 87.5 168.105469 C 88.09375 168.113281 88.5625 168.59375 88.554688 169.179688 L 88.554688 169.1875 C 88.554688 169.308594 88.5625 169.453125 88.574219 169.59375 C 88.585938 169.734375 88.609375 169.878906 88.632812 170.019531 C 88.6875 170.296875 88.773438 170.574219 88.878906 170.832031 C 89.089844 171.351562 89.402344 171.808594 89.804688 172.175781 C 90.207031 172.546875 90.691406 172.824219 91.246094 173.027344 C 91.519531 173.125 91.8125 173.203125 92.113281 173.261719 C 92.410156 173.324219 92.695312 173.355469 93 173.367188 C 93.300781 173.378906 93.597656 173.367188 93.890625 173.328125 C 94.183594 173.300781 94.46875 173.238281 94.742188 173.152344 C 95.019531 173.0625 95.28125 172.949219 95.53125 172.800781 C 95.777344 172.65625 96.011719 172.492188 96.242188 172.324219 C 96.472656 172.148438 96.699219 171.964844 96.925781 171.769531 C 97.148438 171.578125 97.375 171.371094 97.601562 171.152344 C 97.824219 170.933594 98.058594 170.710938 98.292969 170.472656 L 98.652344 170.109375 L 98.84375 169.921875 C 98.875 169.890625 98.902344 169.859375 98.941406 169.828125 C 98.972656 169.800781 99.007812 169.761719 99.039062 169.746094 L 99.136719 169.679688 C 99.300781 169.5625 99.53125 169.597656 99.648438 169.769531 C 99.691406 169.816406 99.714844 169.890625 99.714844 169.957031 Z M 99.714844 169.957031 " fill-opacity="1" fill-rule="nonzero"/><path fill="#4f124c" d="M 88.5625 169.207031 L 88.554688 169.300781 C 88.546875 169.363281 88.546875 169.417969 88.535156 169.472656 C 88.523438 169.582031 88.511719 169.691406 88.492188 169.800781 C 88.457031 170.011719 88.414062 170.21875 88.359375 170.425781 C 88.304688 170.628906 88.238281 170.832031 88.164062 171.03125 C 88.085938 171.230469 88.007812 171.425781 87.910156 171.617188 C 87.53125 172.390625 86.988281 173.09375 86.320312 173.644531 C 85.992188 173.921875 85.632812 174.160156 85.257812 174.367188 C 84.886719 174.574219 84.496094 174.730469 84.109375 174.871094 L 83.816406 174.96875 C 83.71875 174.996094 83.621094 175.023438 83.515625 175.046875 C 83.324219 175.101562 83.121094 175.136719 82.925781 175.183594 C 82.828125 175.210938 82.726562 175.222656 82.628906 175.238281 C 82.53125 175.257812 82.425781 175.277344 82.328125 175.289062 C 82.226562 175.300781 82.109375 175.304688 82.007812 175.320312 L 81.84375 175.332031 C 81.789062 175.335938 81.734375 175.332031 81.675781 175.332031 L 81.347656 175.332031 C 81.238281 175.324219 81.128906 175.3125 81.019531 175.304688 C 80.964844 175.300781 80.910156 175.292969 80.855469 175.289062 L 80.691406 175.265625 C 80.582031 175.246094 80.472656 175.226562 80.363281 175.203125 C 79.929688 175.105469 79.515625 174.960938 79.121094 174.796875 C 78.722656 174.621094 78.351562 174.421875 78 174.191406 C 77.652344 173.960938 77.328125 173.699219 77.035156 173.414062 C 76.742188 173.128906 76.488281 172.820312 76.257812 172.5 C 76.023438 172.175781 75.824219 171.835938 75.652344 171.484375 C 75.484375 171.132812 75.34375 170.769531 75.238281 170.398438 C 75.183594 170.210938 75.140625 170.023438 75.105469 169.828125 C 75.070312 169.636719 75.050781 169.441406 75.042969 169.230469 C 75.039062 169.023438 75.203125 168.847656 75.410156 168.839844 C 75.5 168.835938 75.582031 168.867188 75.648438 168.914062 L 75.703125 168.949219 C 75.734375 168.976562 75.769531 169.011719 75.804688 169.035156 C 75.84375 169.066406 75.871094 169.097656 75.910156 169.125 C 75.976562 169.1875 76.042969 169.246094 76.109375 169.3125 C 76.238281 169.4375 76.367188 169.5625 76.492188 169.683594 C 76.742188 169.933594 76.988281 170.175781 77.21875 170.410156 C 77.457031 170.648438 77.6875 170.886719 77.917969 171.109375 C 78.152344 171.332031 78.382812 171.550781 78.609375 171.765625 C 78.839844 171.972656 79.066406 172.171875 79.300781 172.359375 C 79.539062 172.535156 79.785156 172.703125 80.039062 172.832031 C 80.296875 172.960938 80.5625 173.054688 80.832031 173.117188 C 80.898438 173.136719 80.964844 173.140625 81.03125 173.152344 L 81.136719 173.171875 C 81.171875 173.175781 81.203125 173.175781 81.238281 173.175781 C 81.304688 173.183594 81.375 173.191406 81.445312 173.195312 L 81.652344 173.195312 C 81.691406 173.195312 81.71875 173.195312 81.757812 173.195312 L 81.859375 173.183594 C 81.933594 173.175781 81.996094 173.171875 82.074219 173.164062 C 82.152344 173.152344 82.226562 173.140625 82.304688 173.128906 C 82.382812 173.117188 82.457031 173.105469 82.535156 173.085938 C 82.6875 173.050781 82.847656 173.027344 82.992188 172.984375 C 83.066406 172.964844 83.144531 172.945312 83.21875 172.921875 L 83.4375 172.851562 C 84.015625 172.65625 84.535156 172.371094 84.972656 172.007812 C 85.410156 171.644531 85.765625 171.1875 86.015625 170.671875 C 86.082031 170.546875 86.128906 170.410156 86.183594 170.277344 C 86.234375 170.144531 86.28125 170.003906 86.320312 169.867188 C 86.355469 169.726562 86.386719 169.585938 86.410156 169.449219 C 86.421875 169.375 86.429688 169.308594 86.441406 169.242188 C 86.445312 169.210938 86.445312 169.175781 86.445312 169.144531 L 86.445312 169.132812 C 86.445312 169.132812 86.445312 169.132812 86.445312 169.125 L 86.445312 169.109375 C 86.445312 169.066406 86.453125 169.015625 86.453125 168.976562 C 86.515625 168.390625 87.03125 167.96875 87.621094 168.023438 C 88.195312 168.101562 88.621094 168.621094 88.5625 169.207031 Z M 88.5625 169.207031 " fill-opacity="1" fill-rule="nonzero"/><path fill="#4f124c" d="M 93.019531 174.425781 C 92.875 175.257812 92.5625 176.027344 92.125 176.695312 C 91.132812 178.234375 89.480469 179.242188 87.609375 179.242188 C 85.484375 179.242188 83.644531 177.9375 82.726562 176.035156 C 82.457031 175.480469 82.269531 174.882812 82.175781 174.246094 C 82.203125 174.246094 82.21875 174.238281 82.238281 174.238281 C 87.085938 173.558594 87.464844 169.769531 87.496094 169.179688 C 87.488281 169.761719 87.609375 173.515625 92.019531 174.324219 C 92.367188 174.382812 92.695312 174.414062 93.019531 174.425781 Z M 93.019531 174.425781 " fill-opacity="1" fill-rule="nonzero"/><path fill="#ff2e66" d="M 92.125 176.695312 C 91.132812 178.234375 89.480469 179.242188 87.609375 179.242188 C 85.484375 179.242188 83.644531 177.9375 82.726562 176.035156 C 84.871094 174.984375 88.464844 174.046875 92.125 176.695312 Z M 92.125 176.695312 " fill-opacity="1" fill-rule="nonzero"/><path fill="#4f124c" d="M 87.609375 180.152344 C 86.0625 180.152344 84.570312 179.558594 83.402344 178.472656 C 82.261719 177.417969 81.507812 175.960938 81.269531 174.378906 C 81.234375 174.136719 81.292969 173.886719 81.445312 173.691406 C 81.59375 173.5 81.816406 173.371094 82.0625 173.339844 L 82.117188 173.335938 C 86.191406 172.765625 86.550781 169.734375 86.585938 169.132812 C 86.613281 168.636719 87.03125 168.253906 87.53125 168.269531 C 88.03125 168.289062 88.421875 168.695312 88.414062 169.191406 C 88.410156 169.78125 88.546875 172.765625 92.191406 173.425781 C 92.476562 173.480469 92.757812 173.511719 93.054688 173.515625 C 93.324219 173.523438 93.566406 173.652344 93.738281 173.855469 C 93.902344 174.0625 93.976562 174.328125 93.925781 174.589844 C 93.335938 177.8125 90.6875 180.152344 87.609375 180.152344 Z M 83.28125 174.960938 C 83.914062 176.957031 85.625 178.328125 87.617188 178.328125 C 89.5 178.328125 91.160156 177.066406 91.863281 175.214844 C 89.316406 174.75 88.03125 173.382812 87.390625 172.253906 C 86.726562 173.246094 85.503906 174.433594 83.28125 174.960938 Z M 83.28125 174.960938 " fill-opacity="1" fill-rule="nonzero"/><path fill="#4f124c" d="M 92.832031 165.324219 C 92.804688 166.773438 90.425781 169.453125 87.550781 169.421875 C 84.667969 169.394531 82.382812 166.652344 82.410156 165.207031 C 82.433594 163.757812 84.773438 163.351562 87.652344 163.390625 C 90.535156 163.425781 92.855469 163.875 92.832031 165.324219 Z M 92.832031 165.324219 " fill-opacity="1" fill-rule="nonzero"/><path fill="#ffffff" d="M 87.511719 165.855469 C 89.042969 165.886719 89.890625 165.546875 89.894531 165.359375 C 89.894531 165.34375 89.882812 165.3125 89.851562 165.289062 C 89.625 165.050781 88.761719 164.796875 87.554688 164.773438 C 87.488281 164.773438 87.421875 164.773438 87.355469 164.773438 C 85.953125 164.773438 85.179688 165.09375 85.175781 165.269531 C 85.175781 165.289062 85.1875 165.316406 85.21875 165.34375 C 85.441406 165.578125 86.300781 165.832031 87.511719 165.855469 Z M 87.511719 165.855469 " fill-opacity="0.4" fill-rule="nonzero"/><path fill="#4f124c" d="M 58.925781 159.15625 C 58.542969 159.070312 58.171875 158.96875 57.800781 158.859375 C 57.429688 158.75 57.0625 158.632812 56.695312 158.519531 C 55.972656 158.277344 55.253906 158.019531 54.546875 157.742188 C 54.371094 157.675781 54.195312 157.601562 54.015625 157.53125 C 53.839844 157.457031 53.664062 157.390625 53.492188 157.316406 C 53.144531 157.171875 52.796875 157.015625 52.457031 156.851562 C 52.117188 156.6875 51.78125 156.511719 51.457031 156.324219 C 51.128906 156.136719 50.8125 155.933594 50.507812 155.703125 C 50.035156 155.347656 49.941406 154.671875 50.300781 154.199219 C 50.585938 153.820312 51.085938 153.683594 51.511719 153.835938 C 51.871094 153.957031 52.21875 154.117188 52.554688 154.285156 C 52.894531 154.449219 53.226562 154.632812 53.554688 154.820312 C 53.882812 155.007812 54.199219 155.207031 54.515625 155.414062 C 54.675781 155.515625 54.832031 155.625 54.984375 155.730469 C 55.144531 155.832031 55.296875 155.941406 55.453125 156.050781 C 56.074219 156.480469 56.691406 156.929688 57.300781 157.402344 C 57.605469 157.640625 57.902344 157.875 58.195312 158.125 C 58.492188 158.375 58.785156 158.621094 59.066406 158.886719 C 59.128906 158.949219 59.132812 159.046875 59.074219 159.113281 C 59.035156 159.148438 58.980469 159.167969 58.925781 159.15625 Z M 58.925781 159.15625 " fill-opacity="1" fill-rule="nonzero"/><path fill="#4f124c" d="M 56.203125 164.335938 C 55.832031 164.347656 55.464844 164.339844 55.101562 164.324219 C 54.734375 164.3125 54.375 164.285156 54.011719 164.261719 C 53.292969 164.207031 52.574219 164.136719 51.859375 164.042969 C 51.683594 164.019531 51.507812 163.996094 51.332031 163.972656 C 51.152344 163.945312 50.976562 163.921875 50.800781 163.890625 C 50.449219 163.835938 50.09375 163.769531 49.746094 163.691406 C 49.398438 163.613281 49.050781 163.527344 48.710938 163.429688 C 48.371094 163.328125 48.027344 163.21875 47.699219 163.066406 C 47.15625 162.824219 46.914062 162.1875 47.15625 161.640625 C 47.351562 161.210938 47.792969 160.976562 48.234375 161.011719 C 48.59375 161.042969 48.949219 161.109375 49.296875 161.1875 C 49.644531 161.265625 49.984375 161.355469 50.324219 161.460938 C 50.667969 161.5625 51 161.679688 51.34375 161.800781 C 51.511719 161.859375 51.679688 161.925781 51.84375 161.988281 C 52.007812 162.046875 52.175781 162.113281 52.34375 162.183594 C 53.003906 162.449219 53.667969 162.726562 54.328125 163.03125 C 54.65625 163.183594 54.980469 163.339844 55.308594 163.503906 C 55.632812 163.667969 55.953125 163.84375 56.277344 164.03125 C 56.351562 164.074219 56.375 164.171875 56.332031 164.25 C 56.308594 164.304688 56.257812 164.328125 56.203125 164.335938 Z M 56.203125 164.335938 " fill-opacity="1" fill-rule="nonzero"/><path fill="#4f124c" d="M 133.800781 164.382812 C 133.800781 167.644531 133.230469 170.800781 132.15625 173.785156 C 131.035156 145.625 115.464844 144.671875 115.464844 144.671875 C 115.464844 144.671875 83.347656 144.671875 68.089844 144.671875 C 57.921875 144.671875 51.300781 157.269531 48.011719 165.679688 C 47.988281 165.25 47.980469 164.8125 47.980469 164.378906 C 47.980469 145.503906 67.191406 130.203125 90.894531 130.203125 C 114.589844 130.203125 133.800781 145.503906 133.800781 164.382812 Z M 133.800781 164.382812 " fill-opacity="0.2" fill-rule="nonzero"/><path fill="#4f124c" d="M 120.699219 158.886719 C 120.984375 158.621094 121.277344 158.367188 121.570312 158.125 C 121.863281 157.875 122.167969 157.640625 122.464844 157.402344 C 123.070312 156.9375 123.683594 156.488281 124.3125 156.050781 C 124.46875 155.941406 124.621094 155.832031 124.78125 155.730469 C 124.9375 155.621094 125.089844 155.515625 125.25 155.414062 C 125.566406 155.207031 125.890625 155.007812 126.210938 154.820312 C 126.539062 154.632812 126.871094 154.449219 127.210938 154.285156 C 127.550781 154.121094 127.894531 153.964844 128.253906 153.835938 C 128.820312 153.640625 129.429688 153.941406 129.621094 154.503906 C 129.78125 154.953125 129.617188 155.4375 129.257812 155.710938 C 128.953125 155.941406 128.628906 156.136719 128.308594 156.328125 C 127.976562 156.515625 127.644531 156.691406 127.308594 156.855469 C 126.96875 157.019531 126.625 157.179688 126.273438 157.324219 C 126.097656 157.398438 125.917969 157.46875 125.75 157.535156 C 125.570312 157.609375 125.394531 157.675781 125.21875 157.75 C 124.511719 158.019531 123.792969 158.28125 123.070312 158.523438 C 122.703125 158.644531 122.335938 158.761719 121.964844 158.863281 C 121.59375 158.972656 121.222656 159.078125 120.839844 159.160156 C 120.753906 159.179688 120.667969 159.125 120.648438 159.039062 C 120.636719 158.980469 120.65625 158.925781 120.699219 158.886719 Z M 120.699219 158.886719 " fill-opacity="1" fill-rule="nonzero"/><path fill="#4f124c" d="M 123.488281 164.039062 C 123.804688 163.851562 124.128906 163.679688 124.457031 163.511719 C 124.78125 163.347656 125.109375 163.1875 125.4375 163.039062 C 126.097656 162.734375 126.753906 162.449219 127.421875 162.1875 C 127.589844 162.121094 127.757812 162.054688 127.921875 161.992188 C 128.085938 161.925781 128.257812 161.867188 128.421875 161.804688 C 128.757812 161.683594 129.097656 161.570312 129.441406 161.464844 C 129.78125 161.363281 130.121094 161.273438 130.46875 161.195312 C 130.816406 161.121094 131.167969 161.046875 131.527344 161.015625 C 132.125 160.964844 132.648438 161.40625 132.699219 161.992188 C 132.742188 162.460938 132.472656 162.886719 132.066406 163.066406 C 131.738281 163.214844 131.394531 163.328125 131.054688 163.429688 C 130.714844 163.535156 130.367188 163.621094 130.019531 163.691406 C 129.671875 163.769531 129.316406 163.832031 128.964844 163.890625 C 128.789062 163.921875 128.613281 163.945312 128.433594 163.972656 C 128.257812 163.996094 128.082031 164.019531 127.90625 164.042969 C 127.191406 164.136719 126.480469 164.207031 125.753906 164.261719 C 125.394531 164.285156 125.03125 164.3125 124.664062 164.324219 C 124.300781 164.335938 123.933594 164.339844 123.5625 164.335938 C 123.476562 164.335938 123.402344 164.261719 123.410156 164.171875 C 123.410156 164.117188 123.441406 164.066406 123.488281 164.039062 Z M 123.488281 164.039062 " fill-opacity="1" fill-rule="nonzero"/><path fill="#4f124c" d="M 73.367188 151.996094 C 73.65625 152.019531 73.941406 152.082031 74.21875 152.183594 C 74.496094 152.285156 74.765625 152.425781 75.019531 152.605469 C 75.277344 152.78125 75.515625 152.996094 75.738281 153.242188 C 75.960938 153.488281 76.164062 153.765625 76.347656 154.070312 C 76.527344 154.375 76.6875 154.707031 76.820312 155.058594 C 76.957031 155.410156 77.0625 155.78125 77.144531 156.167969 C 77.226562 156.554688 77.277344 156.953125 77.304688 157.359375 C 77.328125 157.765625 77.324219 158.175781 77.292969 158.582031 C 77.257812 158.992188 77.199219 159.398438 77.109375 159.792969 C 77.019531 160.191406 76.90625 160.574219 76.765625 160.945312 C 76.625 161.316406 76.460938 161.664062 76.269531 161.992188 C 76.082031 162.320312 75.875 162.621094 75.644531 162.894531 C 75.417969 163.167969 75.175781 163.410156 74.914062 163.617188 C 74.65625 163.824219 74.386719 163.996094 74.105469 164.132812 C 73.824219 164.269531 73.539062 164.367188 73.246094 164.421875 C 72.957031 164.480469 72.664062 164.5 72.375 164.476562 C 72.085938 164.453125 71.800781 164.390625 71.523438 164.289062 C 71.242188 164.183594 70.976562 164.046875 70.722656 163.867188 C 70.464844 163.6875 70.226562 163.476562 70.003906 163.230469 C 69.777344 162.984375 69.578125 162.707031 69.394531 162.402344 C 69.210938 162.097656 69.054688 161.765625 68.917969 161.414062 C 68.785156 161.058594 68.675781 160.6875 68.597656 160.300781 C 68.515625 159.914062 68.460938 159.519531 68.4375 159.113281 C 68.414062 158.707031 68.417969 158.296875 68.449219 157.886719 C 68.480469 157.476562 68.542969 157.074219 68.632812 156.675781 C 68.71875 156.28125 68.835938 155.894531 68.976562 155.527344 C 69.117188 155.15625 69.28125 154.808594 69.46875 154.480469 C 69.660156 154.152344 69.867188 153.851562 70.09375 153.578125 C 70.324219 153.304688 70.566406 153.0625 70.828125 152.855469 C 71.085938 152.644531 71.355469 152.472656 71.636719 152.335938 C 71.917969 152.203125 72.203125 152.105469 72.492188 152.046875 C 72.785156 151.992188 73.074219 151.972656 73.367188 151.996094 Z M 73.367188 151.996094 " fill-opacity="1" fill-rule="nonzero"/><path fill="#ffffff" d="M 74.28125 154.777344 C 74.457031 154.792969 74.621094 154.859375 74.777344 154.980469 C 74.933594 155.097656 75.066406 155.261719 75.175781 155.46875 C 75.285156 155.675781 75.363281 155.910156 75.410156 156.171875 C 75.457031 156.433594 75.472656 156.703125 75.449219 156.980469 C 75.425781 157.261719 75.371094 157.523438 75.285156 157.777344 C 75.195312 158.027344 75.082031 158.246094 74.941406 158.433594 C 74.800781 158.621094 74.640625 158.761719 74.46875 158.855469 C 74.296875 158.949219 74.125 158.988281 73.945312 158.976562 C 73.769531 158.960938 73.601562 158.894531 73.449219 158.773438 C 73.292969 158.65625 73.160156 158.492188 73.050781 158.285156 C 72.941406 158.078125 72.863281 157.84375 72.816406 157.582031 C 72.769531 157.320312 72.753906 157.050781 72.777344 156.773438 C 72.800781 156.492188 72.855469 156.230469 72.941406 155.976562 C 73.03125 155.726562 73.144531 155.507812 73.285156 155.320312 C 73.425781 155.132812 73.582031 154.992188 73.753906 154.898438 C 73.929688 154.804688 74.101562 154.765625 74.28125 154.777344 Z M 74.28125 154.777344 " fill-opacity="1" fill-rule="nonzero"/><path fill="#4f124c" d="M 112.925781 159.09375 C 112.957031 159.503906 112.960938 159.910156 112.9375 160.316406 C 112.914062 160.722656 112.859375 161.121094 112.777344 161.507812 C 112.699219 161.894531 112.589844 162.265625 112.457031 162.617188 C 112.320312 162.972656 112.164062 163.300781 111.980469 163.605469 C 111.800781 163.914062 111.597656 164.1875 111.371094 164.4375 C 111.148438 164.683594 110.910156 164.894531 110.65625 165.074219 C 110.398438 165.25 110.132812 165.390625 109.851562 165.492188 C 109.574219 165.59375 109.289062 165.65625 109 165.679688 C 108.710938 165.703125 108.417969 165.6875 108.128906 165.628906 C 107.835938 165.570312 107.550781 165.472656 107.269531 165.339844 C 106.992188 165.203125 106.71875 165.03125 106.460938 164.824219 C 106.203125 164.613281 105.957031 164.371094 105.730469 164.097656 C 105.5 163.824219 105.292969 163.523438 105.105469 163.195312 C 104.917969 162.867188 104.75 162.519531 104.609375 162.148438 C 104.46875 161.78125 104.355469 161.398438 104.265625 161 C 104.175781 160.601562 104.117188 160.199219 104.085938 159.789062 C 104.050781 159.378906 104.046875 158.972656 104.074219 158.566406 C 104.097656 158.160156 104.148438 157.761719 104.230469 157.375 C 104.3125 156.988281 104.417969 156.617188 104.554688 156.261719 C 104.6875 155.910156 104.847656 155.582031 105.027344 155.273438 C 105.210938 154.96875 105.414062 154.691406 105.636719 154.445312 C 105.859375 154.199219 106.101562 153.988281 106.355469 153.808594 C 106.609375 153.632812 106.878906 153.492188 107.15625 153.390625 C 107.433594 153.285156 107.71875 153.222656 108.007812 153.203125 C 108.300781 153.179688 108.589844 153.195312 108.882812 153.253906 C 109.171875 153.3125 109.457031 153.40625 109.738281 153.542969 C 110.019531 153.679688 110.289062 153.851562 110.550781 154.058594 C 110.808594 154.269531 111.050781 154.507812 111.28125 154.78125 C 111.507812 155.054688 111.71875 155.355469 111.90625 155.683594 C 112.09375 156.011719 112.257812 156.363281 112.398438 156.730469 C 112.539062 157.101562 112.65625 157.484375 112.742188 157.882812 C 112.832031 158.28125 112.894531 158.683594 112.925781 159.09375 Z M 112.925781 159.09375 " fill-opacity="1" fill-rule="nonzero"/><path fill="#ffffff" d="M 108.597656 157.976562 C 108.621094 158.253906 108.609375 158.527344 108.558594 158.789062 C 108.511719 159.050781 108.433594 159.285156 108.324219 159.492188 C 108.214844 159.699219 108.082031 159.859375 107.925781 159.980469 C 107.773438 160.097656 107.605469 160.167969 107.429688 160.179688 C 107.25 160.195312 107.078125 160.15625 106.90625 160.0625 C 106.734375 159.96875 106.578125 159.828125 106.433594 159.640625 C 106.292969 159.453125 106.179688 159.234375 106.09375 158.980469 C 106.003906 158.730469 105.949219 158.464844 105.925781 158.1875 C 105.90625 157.910156 105.917969 157.640625 105.964844 157.375 C 106.011719 157.113281 106.089844 156.878906 106.199219 156.671875 C 106.308594 156.464844 106.441406 156.304688 106.597656 156.183594 C 106.753906 156.066406 106.917969 156 107.097656 155.984375 C 107.273438 155.96875 107.449219 156.011719 107.621094 156.105469 C 107.792969 156.195312 107.949219 156.335938 108.089844 156.523438 C 108.230469 156.710938 108.34375 156.929688 108.433594 157.183594 C 108.519531 157.433594 108.578125 157.699219 108.597656 157.976562 Z M 108.597656 157.976562 " fill-opacity="1" fill-rule="nonzero"/><path fill="#ffbe4d" d="M 42.917969 131.128906 L 42.917969 198.558594 L 136.695312 198.558594 L 136.695312 128.152344 L 45.910156 128.152344 C 44.257812 128.152344 42.917969 129.484375 42.917969 131.128906 Z M 125.808594 177.921875 C 125.808594 184.417969 120.472656 189.730469 113.949219 189.730469 L 64.09375 189.730469 C 57.566406 189.730469 52.230469 184.417969 52.230469 177.921875 L 52.230469 148.722656 C 52.230469 142.226562 57.566406 136.914062 64.09375 136.914062 L 113.949219 136.914062 C 120.472656 136.914062 125.808594 142.226562 125.808594 148.722656 Z M 125.808594 177.921875 " fill-opacity="1" fill-rule="nonzero"/><path fill="#ffffff" d="M 65.308594 191.851562 L 115.167969 191.851562 C 121.691406 191.851562 127.027344 186.539062 127.027344 180.042969 L 127.027344 150.847656 C 127.027344 148.300781 126.199219 145.929688 124.808594 143.992188 C 125.449219 145.441406 125.808594 147.042969 125.808594 148.722656 L 125.808594 177.921875 C 125.808594 184.417969 120.472656 189.730469 113.949219 189.730469 L 64.09375 189.730469 C 60.132812 189.730469 56.613281 187.769531 54.457031 184.773438 C 56.296875 188.929688 60.472656 191.851562 65.308594 191.851562 Z M 65.308594 191.851562 " fill-opacity="0.6" fill-rule="nonzero"/><path fill="#ffffff" d="M 101.875 128.152344 L 45.910156 128.152344 C 44.257812 128.152344 42.917969 129.484375 42.917969 131.128906 L 42.917969 198.558594 L 44.136719 198.558594 L 44.136719 133.253906 C 44.136719 131.609375 45.476562 130.273438 47.128906 130.273438 L 125.488281 130.273438 L 128.347656 130.527344 C 131.503906 130.8125 134.007812 133.308594 134.28125 136.453125 L 136.699219 164.183594 L 136.699219 128.152344 Z M 101.875 128.152344 " fill-opacity="0.6" fill-rule="nonzero"/><path fill="#4f124c" d="M 125.175781 144.988281 L 125.175781 146.714844 C 124.128906 141.269531 119.292969 137.117188 113.53125 137.117188 L 63.671875 137.117188 C 58.078125 137.117188 52.949219 141.179688 51.605469 146.429688 L 51.605469 144.988281 C 51.605469 138.492188 56.941406 133.179688 63.464844 133.179688 L 113.320312 133.179688 C 119.839844 133.179688 125.175781 138.492188 125.175781 144.988281 Z M 125.175781 144.988281 " fill-opacity="0.2" fill-rule="nonzero"/><g clip-path="url(#ec4eba8b6e)"><path stroke-linecap="round" transform="matrix(0.0609134, 0, 0, 0.0606497, 26.75819, 127.090055)" fill="none" stroke-linejoin="round" d="M 265.290969 66.59314 L 265.290969 1178.383143 L 1804.809721 1178.383143 L 1804.809721 17.515166 L 314.412949 17.515166 C 287.286842 17.515166 265.290969 39.477881 265.290969 66.59314 Z M 1626.21349 838.122073 C 1626.21349 945.230565 1538.614764 1032.823799 1431.521153 1032.823799 L 612.992501 1032.823799 C 505.89889 1032.823799 418.300164 945.230565 418.300164 838.122073 L 418.300164 356.681321 C 418.300164 249.572829 505.89889 161.979595 612.992501 161.979595 L 1431.521153 161.979595 C 1538.614764 161.979595 1626.21349 249.572829 1626.21349 356.681321 Z M 1626.21349 838.122073 " stroke="#4f124c" stroke-width="35" stroke-opacity="1" stroke-miterlimit="10"/></g><path fill="#ffbe4d" d="M 163.34375 147.378906 L 163.34375 198.566406 L 136.695312 198.566406 L 136.695312 128.152344 L 161.96875 144.832031 C 162.828125 145.394531 163.34375 146.351562 163.34375 147.378906 Z M 163.34375 147.378906 " fill-opacity="1" fill-rule="nonzero"/><path fill="#ffffff" d="M 163.34375 147.378906 L 163.34375 170.285156 L 161.1875 149.140625 C 161.101562 148.328125 160.695312 147.582031 160.054688 147.066406 L 136.699219 128.449219 L 136.699219 128.152344 L 161.972656 144.832031 C 162.828125 145.394531 163.34375 146.351562 163.34375 147.378906 Z M 163.34375 147.378906 " fill-opacity="0.6" fill-rule="nonzero"/><path fill="#4f124c" d="M 163.34375 155.765625 L 163.34375 198.566406 L 136.695312 198.566406 L 136.695312 196.195312 L 136.957031 194.203125 C 161.449219 193.40625 163.234375 162.382812 163.34375 155.765625 Z M 163.34375 155.765625 " fill-opacity="0.2" fill-rule="nonzero"/><g clip-path="url(#df28fc1acd)"><path fill="#4f124c" d="M 163.34375 199.621094 L 136.695312 199.621094 C 136.105469 199.621094 135.628906 199.148438 135.628906 198.558594 L 135.628906 128.152344 C 135.628906 127.761719 135.84375 127.398438 136.1875 127.21875 C 136.535156 127.035156 136.957031 127.054688 137.28125 127.265625 L 162.550781 143.945312 C 163.710938 144.707031 164.398438 145.988281 164.398438 147.371094 L 164.398438 198.558594 C 164.410156 199.148438 163.929688 199.621094 163.34375 199.621094 Z M 137.761719 197.5 L 162.277344 197.5 L 162.277344 147.371094 C 162.277344 146.703125 161.941406 146.078125 161.382812 145.714844 L 137.761719 130.128906 Z M 137.761719 197.5 " fill-opacity="1" fill-rule="nonzero"/></g><path fill="#ffbe4d" d="M 176.265625 214 L 153.664062 214 C 152.859375 214 152.085938 213.6875 151.507812 213.121094 L 146.488281 208.183594 L 136.695312 198.558594 L 163.34375 198.558594 L 164.789062 199.980469 L 177.074219 212.046875 C 177.800781 212.765625 177.289062 214 176.265625 214 Z M 176.265625 214 " fill-opacity="1" fill-rule="nonzero"/><path fill="#4f124c" d="M 176.265625 214 L 153.664062 214 C 152.859375 214 152.085938 213.6875 151.507812 213.121094 L 146.488281 208.183594 C 161.460938 213.21875 164.363281 205.121094 164.78125 199.980469 L 177.066406 212.046875 C 177.800781 212.765625 177.289062 214 176.265625 214 Z M 176.265625 214 " fill-opacity="0.2" fill-rule="nonzero"/><path fill="#4f124c" d="M 176.265625 215.0625 L 153.664062 215.0625 C 152.574219 215.0625 151.539062 214.644531 150.765625 213.875 L 135.953125 199.3125 C 135.640625 199.007812 135.550781 198.554688 135.714844 198.152344 C 135.878906 197.753906 136.269531 197.492188 136.699219 197.492188 L 163.351562 197.492188 C 163.628906 197.492188 163.898438 197.601562 164.101562 197.796875 L 177.824219 211.285156 C 178.464844 211.914062 178.65625 212.855469 178.316406 213.6875 C 177.96875 214.527344 177.164062 215.0625 176.265625 215.0625 Z M 139.296875 199.621094 L 152.265625 212.363281 C 152.640625 212.734375 153.140625 212.941406 153.671875 212.941406 L 176.269531 212.941406 C 176.292969 212.941406 176.324219 212.941406 176.34375 212.890625 C 176.363281 212.84375 176.34375 212.824219 176.324219 212.804688 L 162.910156 199.621094 Z M 139.296875 199.621094 " fill-opacity="1" fill-rule="nonzero"/><path fill="#4f124c" d="M 126.328125 178.789062 L 126.328125 181.820312 C 126.328125 188.316406 120.992188 192.148438 114.46875 192.148438 L 64.609375 192.148438 C 58.085938 192.148438 52.75 188.308594 52.75 181.820312 L 52.75 180.09375 C 53.796875 185.539062 58.632812 189.691406 64.398438 189.691406 L 114.253906 189.691406 C 120.472656 189.691406 125.839844 184.863281 126.328125 178.789062 Z M 126.328125 178.789062 " fill-opacity="0.2" fill-rule="nonzero"/><path fill="#4f124c" d="M 42.917969 194.203125 L 136.957031 194.203125 L 136.957031 198.566406 L 42.917969 198.566406 Z M 42.917969 194.203125 " fill-opacity="0.2" fill-rule="nonzero"/><g fill="#ffffff" fill-opacity="1"><g transform="translate(187.499992, 166.641837)"><g><path d="M 17.515625 -29.5 C 20.742188 -29.5 23.234375 -28.660156 24.984375 -26.984375 C 26.734375 -25.316406 27.609375 -22.945312 27.609375 -19.875 C 27.609375 -17.007812 26.800781 -14.769531 25.1875 -13.15625 C 23.570312 -11.539062 21.269531 -10.632812 18.28125 -10.4375 L 11.5 -10.4375 L 11.5 0 L 1.953125 0 L 1.953125 -29.5 Z M 16.21875 -17.703125 C 18.113281 -17.703125 19.0625 -18.425781 19.0625 -19.875 C 19.0625 -21.375 18.113281 -22.125 16.21875 -22.125 L 11.5 -22.125 L 11.5 -17.703125 Z M 16.21875 -17.703125 "/></g></g></g><g fill="#ffffff" fill-opacity="1"><g transform="translate(218.736037, 166.641837)"><g><path d="M 21.171875 -4.3125 L 11.265625 -4.3125 L 9.671875 0 L 0.40625 0 L 11.4375 -29.5 L 21.125 -29.5 L 32.03125 0 L 22.71875 0 Z M 18.578125 -11.390625 L 16.28125 -19.46875 L 13.859375 -11.390625 Z M 18.578125 -11.390625 "/></g></g></g><g fill="#ffffff" fill-opacity="1"><g transform="translate(253.510834, 166.641837)"><g><path d="M 41.125 -29.5 L 32.390625 0 L 24.546875 0 L 20.890625 -14.453125 L 17.171875 0 L 9.265625 0 L 0.53125 -29.5 L 9.265625 -29.5 L 13.328125 -12.5 L 17.34375 -29.5 L 24.3125 -29.5 L 28.375 -12.5 L 32.453125 -29.5 Z M 41.125 -29.5 "/></g></g></g><g fill="#ffffff" fill-opacity="1"><g transform="translate(297.545398, 166.641837)"><g><path d="M 14.984375 0.40625 C 19.347656 0.445312 22.707031 -0.316406 25.0625 -1.890625 C 27.425781 -3.460938 28.609375 -5.722656 28.609375 -8.671875 C 28.609375 -10.328125 28.164062 -11.703125 27.28125 -12.796875 C 26.394531 -13.898438 25.265625 -14.804688 23.890625 -15.515625 C 22.515625 -16.222656 21.039062 -16.800781 19.46875 -17.25 C 17.894531 -17.707031 16.421875 -18.09375 15.046875 -18.40625 C 13.671875 -18.71875 12.539062 -19.039062 11.65625 -19.375 C 10.769531 -19.707031 10.328125 -20.128906 10.328125 -20.640625 C 10.328125 -21.941406 11.820312 -22.59375 14.8125 -22.59375 C 17.5625 -22.59375 19.3125 -21.394531 20.0625 -19 L 27.84375 -21.125 C 27.0625 -23.957031 25.535156 -26.140625 23.265625 -27.671875 C 21.003906 -29.203125 18.1875 -29.96875 14.8125 -29.96875 C 10.445312 -29.96875 7.082031 -29.179688 4.71875 -27.609375 C 2.363281 -26.035156 1.1875 -23.796875 1.1875 -20.890625 C 1.1875 -19.234375 1.625 -17.863281 2.5 -16.78125 C 3.382812 -15.695312 4.523438 -14.8125 5.921875 -14.125 C 7.316406 -13.4375 8.789062 -12.875 10.34375 -12.4375 C 11.90625 -12.007812 13.382812 -11.640625 14.78125 -11.328125 C 16.175781 -11.015625 17.316406 -10.679688 18.203125 -10.328125 C 19.085938 -9.972656 19.53125 -9.5 19.53125 -8.90625 C 19.53125 -8.3125 19.132812 -7.859375 18.34375 -7.546875 C 17.5625 -7.234375 16.441406 -7.078125 14.984375 -7.078125 C 12.273438 -7.078125 10.546875 -8.21875 9.796875 -10.5 L 1.953125 -8.375 C 2.773438 -5.539062 4.316406 -3.359375 6.578125 -1.828125 C 8.835938 -0.296875 11.640625 0.445312 14.984375 0.40625 Z M 14.984375 0.40625 "/></g></g></g><g fill="#ffffff" fill-opacity="1"><g transform="translate(330.021205, 166.641837)"><g/></g></g><g fill="#ffffff" fill-opacity="1"><g transform="translate(187.499992, 206.487593)"><g><path d="M 22.421875 0 C 22.359375 -0.195312 22.253906 -0.394531 22.109375 -0.59375 C 21.960938 -0.789062 21.804688 -0.988281 21.640625 -1.1875 C 19.421875 -0.164062 16.78125 0.34375 13.71875 0.34375 C 9.65625 0.34375 6.523438 -0.296875 4.328125 -1.578125 C 2.140625 -2.867188 1.046875 -4.703125 1.046875 -7.078125 C 1.046875 -8.734375 1.597656 -10.019531 2.703125 -10.9375 C 3.804688 -11.863281 5.066406 -12.625 6.484375 -13.21875 C 5.992188 -14.007812 5.597656 -14.789062 5.296875 -15.5625 C 5.003906 -16.34375 4.859375 -17.128906 4.859375 -17.921875 C 4.859375 -20.460938 5.671875 -22.3125 7.296875 -23.46875 C 8.929688 -24.625 11.253906 -25.203125 14.265625 -25.203125 C 17.003906 -25.203125 19.113281 -24.597656 20.59375 -23.390625 C 22.082031 -22.179688 22.828125 -20.457031 22.828125 -18.21875 C 22.828125 -16.570312 22.3125 -15.226562 21.28125 -14.1875 C 20.257812 -13.144531 19.054688 -12.296875 17.671875 -11.640625 L 19.90625 -9.75 C 20.226562 -10.445312 20.390625 -11.273438 20.390625 -12.234375 L 28.3125 -12.234375 C 28.3125 -9.421875 27.65625 -7.023438 26.34375 -5.046875 C 27.300781 -4.253906 28.148438 -3.4375 28.890625 -2.59375 C 29.628906 -1.757812 30.195312 -0.894531 30.59375 0 Z M 12.765625 -17.328125 C 12.765625 -16.796875 12.898438 -16.21875 13.171875 -15.59375 C 13.734375 -15.851562 14.160156 -16.140625 14.453125 -16.453125 C 14.753906 -16.773438 14.90625 -17.132812 14.90625 -17.53125 C 14.90625 -18.519531 14.625 -19.015625 14.0625 -19.015625 C 13.757812 -19.015625 13.46875 -18.875 13.1875 -18.59375 C 12.90625 -18.3125 12.765625 -17.890625 12.765625 -17.328125 Z M 13.71875 -5.890625 C 13.882812 -5.890625 14.082031 -5.914062 14.3125 -5.96875 C 14.539062 -6.019531 14.671875 -6.09375 14.703125 -6.1875 C 14.078125 -6.75 13.441406 -7.285156 12.796875 -7.796875 C 12.148438 -8.304688 11.5 -8.84375 10.84375 -9.40625 C 10.28125 -9.175781 9.828125 -8.9375 9.484375 -8.6875 C 9.140625 -8.4375 8.96875 -8.164062 8.96875 -7.875 C 8.96875 -7.3125 9.378906 -6.835938 10.203125 -6.453125 C 11.023438 -6.078125 12.195312 -5.890625 13.71875 -5.890625 Z M 13.71875 -5.890625 "/></g></g></g><g fill="#ffffff" fill-opacity="1"><g transform="translate(187.499992, 248.823709)"><g><path d="M 18.578125 -12.328125 C 18.148438 -9.335938 16.929688 -7.84375 14.921875 -7.84375 C 13.703125 -7.84375 12.75 -8.441406 12.0625 -9.640625 C 11.375 -10.835938 11.03125 -12.539062 11.03125 -14.75 C 11.03125 -16.988281 11.375 -18.707031 12.0625 -19.90625 C 12.75 -21.101562 13.703125 -21.703125 14.921875 -21.703125 C 15.828125 -21.703125 16.601562 -21.304688 17.25 -20.515625 C 17.90625 -19.734375 18.347656 -18.617188 18.578125 -17.171875 L 27.84375 -18.640625 C 27.09375 -22.253906 25.597656 -25.046875 23.359375 -27.015625 C 21.117188 -28.984375 18.285156 -29.96875 14.859375 -29.96875 C 10.617188 -29.96875 7.347656 -28.648438 5.046875 -26.015625 C 2.742188 -23.378906 1.59375 -19.625 1.59375 -14.75 C 1.59375 -9.914062 2.742188 -6.171875 5.046875 -3.515625 C 7.347656 -0.859375 10.617188 0.46875 14.859375 0.46875 C 18.285156 0.46875 21.117188 -0.519531 23.359375 -2.5 C 25.597656 -4.488281 27.09375 -7.273438 27.84375 -10.859375 Z M 18.578125 -12.328125 "/></g></g></g><g fill="#ffffff" fill-opacity="1"><g transform="translate(219.266845, 248.823709)"><g><path d="M 24.546875 -8.265625 L 24.546875 0 L 1.953125 0 L 1.953125 -29.5 L 11.5 -29.5 L 11.5 -8.265625 Z M 24.546875 -8.265625 "/></g></g></g><g fill="#ffffff" fill-opacity="1"><g transform="translate(247.848814, 248.823709)"><g><path d="M 21.171875 -4.3125 L 11.265625 -4.3125 L 9.671875 0 L 0.40625 0 L 11.4375 -29.5 L 21.125 -29.5 L 32.03125 0 L 22.71875 0 Z M 18.578125 -11.390625 L 16.28125 -19.46875 L 13.859375 -11.390625 Z M 18.578125 -11.390625 "/></g></g></g><g fill="#ffffff" fill-opacity="1"><g transform="translate(282.623607, 248.823709)"><g><path d="M 41.125 -29.5 L 32.390625 0 L 24.546875 0 L 20.890625 -14.453125 L 17.171875 0 L 9.265625 0 L 0.53125 -29.5 L 9.265625 -29.5 L 13.328125 -12.5 L 17.34375 -29.5 L 24.3125 -29.5 L 28.375 -12.5 L 32.453125 -29.5 Z M 41.125 -29.5 "/></g></g></g><g fill="#ffffff" fill-opacity="1"><g transform="translate(326.658178, 248.823709)"><g><path d="M 14.984375 0.40625 C 19.347656 0.445312 22.707031 -0.316406 25.0625 -1.890625 C 27.425781 -3.460938 28.609375 -5.722656 28.609375 -8.671875 C 28.609375 -10.328125 28.164062 -11.703125 27.28125 -12.796875 C 26.394531 -13.898438 25.265625 -14.804688 23.890625 -15.515625 C 22.515625 -16.222656 21.039062 -16.800781 19.46875 -17.25 C 17.894531 -17.707031 16.421875 -18.09375 15.046875 -18.40625 C 13.671875 -18.71875 12.539062 -19.039062 11.65625 -19.375 C 10.769531 -19.707031 10.328125 -20.128906 10.328125 -20.640625 C 10.328125 -21.941406 11.820312 -22.59375 14.8125 -22.59375 C 17.5625 -22.59375 19.3125 -21.394531 20.0625 -19 L 27.84375 -21.125 C 27.0625 -23.957031 25.535156 -26.140625 23.265625 -27.671875 C 21.003906 -29.203125 18.1875 -29.96875 14.8125 -29.96875 C 10.445312 -29.96875 7.082031 -29.179688 4.71875 -27.609375 C 2.363281 -26.035156 1.1875 -23.796875 1.1875 -20.890625 C 1.1875 -19.234375 1.625 -17.863281 2.5 -16.78125 C 3.382812 -15.695312 4.523438 -14.8125 5.921875 -14.125 C 7.316406 -13.4375 8.789062 -12.875 10.34375 -12.4375 C 11.90625 -12.007812 13.382812 -11.640625 14.78125 -11.328125 C 16.175781 -11.015625 17.316406 -10.679688 18.203125 -10.328125 C 19.085938 -9.972656 19.53125 -9.5 19.53125 -8.90625 C 19.53125 -8.3125 19.132812 -7.859375 18.34375 -7.546875 C 17.5625 -7.234375 16.441406 -7.078125 14.984375 -7.078125 C 12.273438 -7.078125 10.546875 -8.21875 9.796875 -10.5 L 1.953125 -8.375 C 2.773438 -5.539062 4.316406 -3.359375 6.578125 -1.828125 C 8.835938 -0.296875 11.640625 0.445312 14.984375 0.40625 Z M 14.984375 0.40625 "/></g></g></g></svg>